#!OML:ASF F:\VICON\USERDATA\INSTALL\rory3\rory3.ASF
:FULLY-SPECIFIED
:DEGREES
61
root 0.8234819144430144 18.615074789537196 27.425711419224957 3.110282972159328 2.434204263044172 -4.942215624636853
lfemur -30.986097485587685 -2.8617447082402077 -17.347270207345126
ltibia 29.930093528725067
lfoot 10.610064362433974 -14.61185226010646
ltoes -18.871197161729224
rfemur 10.135910432763877 7.0911298038784825 34.20257944219514
rtibia 43.64512094903829
rfoot 23.34321981230027 -6.3451868490768355
rtoes 10.538979725283038
lowerback nan 2.4515407881435833 5.89198923897952
upperback -1.509679505100249 4.167243117376096 1.3399321883056212
thorax -7.9887753674123765 1.776332300004904 -3.0569986847542694
lowerneck -18.093638333315457 -5.609360596210115 -2.4977364049578
upperneck 9.193115826433907 -7.738294600032527 4.3056861692526445
head 6.161795087119652 -3.5646636354743224 0.9647935944546467
lclavicle -1.1576141905316352e-15 -2.9628507871716866e-15
lhumerus -59.27109779251626 -4.994298658763047 91.26109347377886
lradius 110.13687218976627
lwrist 33.45456658051055
lhand -24.38717756092513 1.124783382321966
lfingers nan
lthumb 2.053199422476941 31.298815329847333
rclavicle -1.5512763067400872e-15 -3.0634469531816404e-15
rhumerus -42.50303242294027 16.21409332195287 -96.08533540841464
rradius 122.7765460817582
rwrist -21.34908524076738
rhand -17.536881246590063 nan
rfingers nan
rthumb 7.963146611696096 10.808630766354941
62
root 0.8108204087705972 18.54196049851464 28.71180348300693 2.5905773672902708 2.8781807929152285 -4.505879840031581
lfemur -29.046247581956592 -3.163197921599474 -18.14725376327877
ltibia 26.285651364902513
lfoot 11.222661898148335 -13.191263002132741
ltoes -19.924383681565487
rfemur 8.956468161256465 6.384910490949389 33.50493809700711
rtibia 51.51637676409338
rfoot 22.565277436501606 -7.733395467880782
rtoes 9.272256969669858
lowerback nan 2.33714644336864 5.289607411034039
upperback -1.2424047434172785 3.9731524378182925 1.274297589920906
thorax -7.911200889689493 1.7185234002128271 -2.743732004595621
lowerneck -18.05080462927188 -5.504368077203514 -2.4980740278188827
upperneck 8.975301029846756 -7.613398301986869 4.429248654392764
head 6.0918228736855875 -3.488623572381032 1.0173191618953947
lclavicle -3.157142224474122e-15 -5.8706668549631335e-15
lhumerus -58.85562325360789 -5.044017129385075 91.29987617694708
lradius 111.03420636379924
lwrist 33.457892787177926
lhand -24.64192953742598 1.2539178838270968
lfingers nan
lthumb 1.989760859695719 31.442942960667782
rclavicle -4.203197019649757e-15 -6.87067613457618e-15
rhumerus -43.064443153886124 16.504782166960442 -96.43407190263332
rradius 122.78590214180038
rwrist -21.13132349630416
rhand -17.607658943112902 nan
rfingers nan
rthumb 7.640180248497283 10.803369927258945
63
root 0.7737558382777812 18.41481971148443 29.68734070343099 1.9234375098088932 3.6003591282304597 -4.0101167807562375
lfemur -27.36244759426046 -3.3669754848455264 -19.10296499586474
ltibia 25.33114713584346
lfoot 11.327218743567503 -13.2131002936566
ltoes -19.175386148391098
rfemur 6.714851654262192 4.889272898778065 32.26654748579095
rtibia 60.345191261473765
rfoot 22.0088544609865 -9.125394268125449
rtoes 7.670197605056893
lowerback nan 2.1443981278435396 4.544620389241846
upperback -0.9966310172018792 3.6552944503308544 1.156984136279095
thorax -7.984002256182734 1.5921674535069628 -2.4289671430152633
lowerneck -18.058421725749056 -5.462670061137459 -2.509419195996939
upperneck 8.833398549991978 -7.576122238118625 4.595791112773534
head 6.026107403282392 -3.448812215536602 1.0808841240063873
lclavicle -2.4558374789840005e-15 -4.9129349299125025e-15
lhumerus -58.066080418428626 -5.27278537846522 91.45555645458498
lradius 111.87644774039745
lwrist 33.20851211038129
lhand -24.832990794861573 1.2867463921833773
lfingers nan
lthumb 1.9319171273929405 31.456337205719585
rclavicle -3.0320592277170992e-15 -5.518095334987198e-15
rhumerus -43.50961755234237 16.763797124846604 -96.8186904315375
rradius 122.49277699342969
rwrist -21.055704107344113
rhand -17.724584530363718 nan
rfingers nan
rthumb 7.693254519687587 11.146512782532898
64
root 0.7442795462254466 18.274564168151514 31.15862151912213 1.3459769124861025 4.6136115362438606 -3.33283832483398
lfemur -25.735448865495066 -3.604852915964843 -20.230276077625167
ltibia 26.974404073837622
lfoot 9.883941185320154 -14.793545211953177
ltoes -15.777010751653938
rfemur 4.083728315283929 2.958080057615349 30.53141235957479
rtibia 69.27635224379418
rfoot 21.321490665887755 -10.253195507711762
rtoes 8.555094138464288
lowerback nan 1.8657726522157643 3.662080437554817
upperback -0.730899783202842 3.186980172817788 0.9352467521854708
thorax -8.132415731934326 1.3970291927050318 -2.005784236249311
lowerneck -18.093879775549368 -5.41562979711891 -2.506004266086428
upperneck 8.724529343456044 -7.549080271819296 4.76393884427803
head 5.9652606563109645 -3.409754462432474 1.144779472530803
lclavicle -1.140364266783639e-15 -2.674770283276305e-15
lhumerus -56.811211493740565 -5.683243304182492 91.68153817988733
lradius 112.5674167843035
lwrist 32.98218396069967
lhand -24.993316246517534 1.4297999849497502
lfingers nan
lthumb 1.9063671713637966 31.431826717604316
rclavicle -8.264450135009213e-16 -2.6787055969698942e-15
rhumerus -43.97258689076671 16.900074218135373 -97.2319499368105
rradius 121.94800644645576
rwrist -21.15434284891059
rhand -17.758679588540954 nan
rfingers nan
rthumb 7.48626101280943 10.812014217809995
65
root 0.6884114689357624 18.055694608204135 30.78187569723633 0.868131806835859 5.101115516151619 -2.735644683160239
lfemur -24.53649233551774 -3.4412696097031286 -21.28023713050433
ltibia 30.792839840966156
lfoot 6.354403672355126 -16.420197449907626
ltoes -10.349011268267269
rfemur 0.867206855810279 1.1303998744525021 28.63615744950766
rtibia 77.90619884596885
rfoot 20.26555611387943 -11.093243344792786
rtoes 12.947315817463302
lowerback nan 1.6596628691418402 2.7186140152340528
upperback -0.48854359350169857 2.7424010181953458 0.6476018066428857
thorax -8.317283325614648 1.1955995030719673 -1.5446850285559086
lowerneck -18.21762016120566 -5.371412441057583 -2.494250310458321
upperneck 8.639480871864825 -7.528546907870837 4.938118513656562
head 5.929300308677919 -3.3740282122109115 1.2077595425218142
lclavicle -7.895947087492215e-16 -1.2826994190552687e-15
lhumerus -55.227846943029974 -6.350367390048386 91.86015188713867
lradius 113.10950292692443
lwrist 32.84982105714711
lhand -25.11759842894093 1.6531102603660504
lfingers nan
lthumb 1.7441129746664832 31.50038177800849
rclavicle -7.827009040967122e-17 -1.3535370253324114e-15
rhumerus -44.482085626609674 16.833757082519256 -97.67783682401938
rradius 121.2164584421896
rwrist -21.372122818025467
rhand -17.820941904667624 nan
rfingers nan
rthumb 7.648243365915747 10.899937658729236
66
root 0.6548122338808268 17.865487949872854 31.58905985780824 0.5648800254302859 5.5190716037357195 -1.9225154144107761
lfemur -23.00010559465496 -3.4034002882817975 -22.62594135015092
ltibia 35.44721141687263
lfoot 0.6826910091355858 -16.335285178152656
ltoes -5.80095223792602
rfemur -2.9334581287887502 -0.7853401500854797 26.314005304264207
rtibia 85.8752896182463
rfoot 18.767990599498077 -11.547708868311236
rtoes 18.31202413735227
lowerback nan 1.4440394052715684 1.6345975545910463
upperback -0.26584466717525435 2.2583575627188504 0.24757722935336957
thorax -8.491612893405103 1.001665438437809 -0.9738848805123302
lowerneck -18.48134272912395 -5.3405152912000045 -2.478308139174854
upperneck 8.568055085010602 -7.5252679447458135 5.10248596750873
head 5.919035015432259 -3.3469962274444836 1.2622182340825685
lclavicle -1.2190251885767171e-15 -1.0014627012621118e-15
lhumerus -53.216471359677165 -7.14619120317354 92.0069343868383
lradius 113.41067567856521
lwrist 32.74687250100718
lhand -25.285836594224957 1.8059228059536196
lfingers nan
lthumb 1.6473172278386674 31.66437409054614
rclavicle -5.781825679881844e-16 -1.0240765102927819e-15
rhumerus -45.0673961394792 16.55053595934792 -98.15213711984136
rradius 120.35952190254176
rwrist -21.56891647969159
rhand -17.827318963135223 nan
rfingers nan
rthumb 7.461978813342164 10.433648024461908
67
root 0.6270486267097511 17.668160367148094 31.72625629167693 0.47214591632539005 5.585030626093555 -1.0771505902854408
lfemur -21.149321263533768 -3.450386359162812 -24.045841801869248
ltibia 39.45579751030694
lfoot -5.089481885225401 -13.269977880863056
ltoes -3.5225677014558983
rfemur -7.633427448408371 -2.5913335692065043 23.77325851903654
rtibia 93.04434473656246
rfoot 17.246793297747125 -11.196088043557733
rtoes 21.258543343138975
lowerback nan 1.2660210858932777 0.5527468052916633
upperback -0.13461890262836373 1.8086102468293703 -0.19468510645034232
thorax -8.702688708765162 0.8309291293985352 -0.44369550722573026
lowerneck -18.891749849108155 -5.279628307531661 -2.4597950338684456
upperneck 8.458574738491498 -7.469838731248386 5.236911729445027
head 5.90911688533221 -3.2979718975996914 1.3078479880839664
lclavicle -1.6396826567840998e-15 -1.6797108279970296e-15
lhumerus -51.00276064624577 -8.061253773561933 91.99911345439297
lradius 113.54772920676642
lwrist 32.6344614957222
lhand -25.329008216984075 2.0057749624569494
lfingers nan
lthumb 1.5747214399969638 31.785818631161153
rclavicle -1.2239488721147593e-15 -1.3913826810763944e-15
rhumerus -45.76337877409769 16.06286008413501 -98.63215949869577
rradius 119.42268699951893
rwrist -21.64369386935715
rhand -17.829217433865328 nan
rfingers nan
rthumb 7.596638370356697 10.560819600330616
